# xmcd CD database file
#
# Track frame offsets:
#	150
#	37503
#	74864
#	95277
#	119491
#	136067
#	156810
#	172668
#	202321
#	228495
#
# Disc length: 3704 seconds
#
# Revision: 1
# Processed by: cddbd v1.5.1PL0 Copyright (c) Steve Scherf et al.
# Submitted via: CDex 1.51
#
DISCID=820e760a
DTITLE=Teruo Furuya - Shakuhachi Suiso
DYEAR=1900
DGENRE=
TTITLE0=Taki Ochi
TTITLE1=Tsuru no Sugomori
TTITLE2=Yamagoe
TTITLE3=Shingetsu
TTITLE4=Kikyo Genso Kyoku
TTITLE5=Miyama Higorashi
TTITLE6=Gekko Roteki (2)
TTITLE7=Ryuro
TTITLE8=Makiri
TTITLE9=Dokuso Shakuhachi no Tameno Kokyo
EXTD=
EXTT0=
EXTT1=
EXTT2=
EXTT3=
EXTT4=
EXTT5=
EXTT6=
EXTT7=
EXTT8=
EXTT9=
PLAYORDER=
